<svg width="282.4875122070312px" height="80.80000152587891px" xmlns="http://www.w3.org/2000/svg" viewBox="108.75624389648439 34.599999237060544 282.4875122070312 80.80000152587891" style="background: rgba(0, 0, 0, 0);" preserveAspectRatio="xMidYMid"><defs><filter id="editing-extrude-glow"><feFlood flood-color="#333333" result="flood-1"></feFlood><feMorphology operator="erode" radius="1" in="SourceAlpha" result="erode"></feMorphology><feComposite operator="in" in="flood-1" in2="erode" result="comp1"></feComposite><feConvolveMatrix order="3,3" divisor="1" in="comp1" result="convolve" kernelMatrix="0 0 0 1 1 1 0 0 0"></feConvolveMatrix><feOffset dx="-3" dy="0" in="convolve" result="extrude"></feOffset><feComposite operator="in" in="flood-1" in2="extrude" result="comp-extrude"></feComposite><feFlood flood-color="#000000" result="flood-2"></feFlood><feComposite operator="in" in="flood-2" in2="SourceAlpha" result="comp2"></feComposite><feMorphology operator="dilate" radius="1" in="comp2" result="dilate"></feMorphology><feOffset dx="-4.5" dy="0" in="dilate" result="offset"></feOffset><feGaussianBlur in="offset" stdDeviation="5.8" result="blur"></feGaussianBlur><feComponentTransfer in="blur" result="shadow"><feFuncA type="linear" slope="0.8" intercept="-0.2"></feFuncA></feComponentTransfer><feMerge><feMergeNode in="shadow"></feMergeNode><feMergeNode in="comp-extrude"></feMergeNode><feMergeNode in="SourceGraphic"></feMergeNode></feMerge></filter></defs><g filter="url(#editing-extrude-glow)"><g transform="translate(153.38499084115028, 89.24999618530273)"><path d="M16.53-5.85L16.53-5.85L16.53-5.85Q17.25-4.94 17.25-3.17L17.25-3.17L17.25-3.17Q17.25-1.41 15.90-0.32L15.90-0.32L15.90-0.32Q14.55 0.76 12.20 0.76L12.20 0.76L12.20 0.76Q10.83 0.76 8.70 0.46L8.70 0.46L8.70 0.46Q4.52-0.19 3.32-0.19L3.32-0.19L3.32-0.19Q2.13-0.19 1.63-0.13L1.63-0.13L1.63-0.13Q1.14-0.08 0.34 0L0.34 0L4.94-25.08L13.26-25.08L9.46-4.18L9.46-4.18Q9.96-4.10 10.41-4.10L10.41-4.10L11.36-4.10L11.36-4.10Q14.55-4.10 16.53-5.85ZM28.08 0.76L28.08 0.76L28.08 0.76Q19.72 0.76 19.72-7.11L19.72-7.11L19.72-7.11Q19.72-12.69 22.80-16.30L22.80-16.30L22.80-16.30Q26.07-20.14 31.73-20.14L31.73-20.14L31.73-20.14Q35.83-20.14 37.92-18.24L37.92-18.24L37.92-18.24Q40.01-16.34 40.01-12.35L40.01-12.35L40.01-12.35Q40.01-6.27 36.75-2.74L36.75-2.74L36.75-2.74Q33.55 0.76 28.08 0.76ZM29.07-15.77L29.07-15.77L29.07-15.77Q28.61-14.74 28.25-13.21L28.25-13.21L28.25-13.21Q27.89-11.67 27.44-9.23L27.44-9.23L27.44-9.23Q26.98-6.80 26.98-3.80L26.98-3.80L26.98-3.80Q26.98-2.81 27.30-2.17L27.30-2.17L27.30-2.17Q27.63-1.52 28.50-1.52L28.50-1.52L28.50-1.52Q29.37-1.52 29.93-1.94L29.93-1.94L29.93-1.94Q30.48-2.36 30.89-3.34L30.89-3.34L30.89-3.34Q31.65-5.09 32.26-8.34L32.26-8.34L32.26-8.34Q32.87-11.59 32.93-13.00L32.93-13.00L32.93-13.00Q32.98-14.40 32.98-15.45L32.98-15.45L32.98-15.45Q32.98-16.49 32.68-17.18L32.68-17.18L32.68-17.18Q32.38-17.86 31.52-17.86L31.52-17.86L31.52-17.86Q30.67-17.86 30.10-17.33L30.10-17.33L30.10-17.33Q29.53-16.80 29.07-15.77ZM56.05-18.73L56.05-18.73L56.05-18.73Q57.30-20.14 59.47-20.14L59.47-20.14L59.47-20.14Q60.80-20.14 61.83-19.42L61.83-19.42L61.83-19.42Q62.85-18.70 62.85-17.35L62.85-17.35L62.85-17.35Q62.85-16.00 62.43-14.55L62.43-14.55L62.43-14.55Q62.02-13.11 61.37-11.63L61.37-11.63L61.37-11.63Q60.08-8.74 58.29-6.35L58.29-6.35L58.29-6.35Q55.78-2.89 53.37-1.06L53.37-1.06L53.37-1.06Q50.96 0.76 48.34 0.76L48.34 0.76L48.34 0.76Q46.21 0.76 44.92 0.27L44.92 0.27L44.92 0.27Q44.69-7.71 44.40-10.56L44.40-10.56L44.40-10.56Q44.12-13.41 43.89-14.97L43.89-14.97L43.89-14.97Q43.51-18.01 42.37-18.73L42.37-18.73L42.37-18.73Q43.24-19.49 44.10-19.82L44.10-19.82L44.10-19.82Q44.95-20.14 46.72-20.14L46.72-20.14L46.72-20.14Q48.49-20.14 49.74-18.75L49.74-18.75L49.74-18.75Q51.00-17.37 51.24-14.91L51.24-14.91L51.24-14.91Q51.49-12.46 51.49-9.50L51.49-9.50L51.49-9.50Q51.49-6.54 51.26-2.96L51.26-2.96L51.26-2.96Q52.44-3.80 53.69-6.35L53.69-6.35L53.69-6.35Q55.40-9.88 56.01-14.14L56.01-14.14L56.01-14.14Q56.20-15.43 56.20-16.80L56.20-16.80L56.20-16.80Q56.20-18.16 56.05-18.73ZM79.27-6.42L79.27-6.42L79.27-6.42Q80.22-5.78 80.22-4.35L80.22-4.35L80.22-4.35Q80.22-2.93 79.50-2.01L79.50-2.01L79.50-2.01Q78.77-1.10 77.60-0.49L77.60-0.49L77.60-0.49Q75.16 0.76 72.54 0.76L72.54 0.76L72.54 0.76Q69.92 0.76 68.38 0.19L68.38 0.19L68.38 0.19Q66.84-0.38 65.82-1.44L65.82-1.44L65.82-1.44Q63.80-3.46 63.80-7.14L63.80-7.14L63.80-7.14Q63.80-12.88 66.92-16.38L66.92-16.38L66.92-16.38Q70.26-20.14 76.08-20.14L76.08-20.14L76.08-20.14Q79.69-20.14 81.47-18.62L81.47-18.62L81.47-18.62Q82.80-17.48 82.80-15.62L82.80-15.62L82.80-15.62Q82.80-8.93 71.25-8.93L71.25-8.93L71.25-8.93Q71.10-7.94 71.10-7.11L71.10-7.11L71.10-7.11Q71.10-5.36 71.88-4.69L71.88-4.69L71.88-4.69Q72.66-4.03 74.10-4.03L74.10-4.03L74.10-4.03Q75.54-4.03 77.08-4.69L77.08-4.69L77.08-4.69Q78.62-5.36 79.27-6.42ZM71.52-10.56L71.52-10.56L71.52-10.56Q74.21-10.56 75.77-12.24L75.77-12.24L75.77-12.24Q77.33-13.83 77.33-16.38L77.33-16.38L77.33-16.38Q77.33-17.25 77.01-17.73L77.01-17.73L77.01-17.73Q76.68-18.20 76.04-18.20L76.04-18.20L76.04-18.20Q75.39-18.20 74.84-17.95L74.84-17.95L74.84-17.95Q74.29-17.71 73.72-16.87L73.72-16.87L73.72-16.87Q72.31-14.97 71.52-10.56ZM87.32 0L82.95 0L89.83-25.08L97.77-25.08L99.52-10.75L106.59-25.08L113.24-25.08L113.92-6.31L113.92-6.31Q114.08-2.58 115.90-1.44L115.90-1.44L115.90-1.44Q115.48-0.68 114.27 0.04L114.27 0.04L114.27 0.04Q113.05 0.76 111.44 0.76L111.44 0.76L111.44 0.76Q109.82 0.76 108.87 0.30L108.87 0.30L108.87 0.30Q107.92-0.15 107.39-0.91L107.39-0.91L107.39-0.91Q106.44-2.28 106.44-4.90L106.44-4.90L106.44-16.64L98.95 0L94.24 0L91.58-17.06L87.32 0ZM125.82 0.76L125.82 0.76L125.82 0.76Q117.46 0.76 117.46-7.11L117.46-7.11L117.46-7.11Q117.46-12.69 120.54-16.30L120.54-16.30L120.54-16.30Q123.80-20.14 129.47-20.14L129.47-20.14L129.47-20.14Q133.57-20.14 135.66-18.24L135.66-18.24L135.66-18.24Q137.75-16.34 137.75-12.35L137.75-12.35L137.75-12.35Q137.75-6.27 134.48-2.74L134.48-2.74L134.48-2.74Q131.29 0.76 125.82 0.76ZM126.81-15.77L126.81-15.77L126.81-15.77Q126.35-14.74 125.99-13.21L125.99-13.21L125.99-13.21Q125.63-11.67 125.17-9.23L125.17-9.23L125.17-9.23Q124.72-6.80 124.72-3.80L124.72-3.80L124.72-3.80Q124.72-2.81 125.04-2.17L125.04-2.17L125.04-2.17Q125.36-1.52 126.24-1.52L126.24-1.52L126.24-1.52Q127.11-1.52 127.66-1.94L127.66-1.94L127.66-1.94Q128.21-2.36 128.63-3.34L128.63-3.34L128.63-3.34Q129.39-5.09 130.00-8.34L130.00-8.34L130.00-8.34Q130.61-11.59 130.66-13.00L130.66-13.00L130.66-13.00Q130.72-14.40 130.72-15.45L130.72-15.45L130.72-15.45Q130.72-16.49 130.42-17.18L130.42-17.18L130.42-17.18Q130.11-17.86 129.26-17.86L129.26-17.86L129.26-17.86Q128.40-17.86 127.83-17.33L127.83-17.33L127.83-17.33Q127.26-16.80 126.81-15.77ZM153.79-18.73L153.79-18.73L153.79-18.73Q155.04-20.14 157.21-20.14L157.21-20.14L157.21-20.14Q158.54-20.14 159.56-19.42L159.56-19.42L159.56-19.42Q160.59-18.70 160.59-17.35L160.59-17.35L160.59-17.35Q160.59-16.00 160.17-14.55L160.17-14.55L160.17-14.55Q159.75-13.11 159.11-11.63L159.11-11.63L159.11-11.63Q157.81-8.74 156.03-6.35L156.03-6.35L156.03-6.35Q153.52-2.89 151.11-1.06L151.11-1.06L151.11-1.06Q148.69 0.76 146.07 0.76L146.07 0.76L146.07 0.76Q143.94 0.76 142.65 0.27L142.65 0.27L142.65 0.27Q142.42-7.71 142.14-10.56L142.14-10.56L142.14-10.56Q141.85-13.41 141.63-14.97L141.63-14.97L141.63-14.97Q141.25-18.01 140.11-18.73L140.11-18.73L140.11-18.73Q140.98-19.49 141.84-19.82L141.84-19.82L141.84-19.82Q142.69-20.14 144.46-20.14L144.46-20.14L144.46-20.14Q146.22-20.14 147.48-18.75L147.48-18.75L147.48-18.75Q148.73-17.37 148.98-14.91L148.98-14.91L148.98-14.91Q149.23-12.46 149.23-9.50L149.23-9.50L149.23-9.50Q149.23-6.54 149.00-2.96L149.00-2.96L149.00-2.96Q150.18-3.80 151.43-6.35L151.43-6.35L151.43-6.35Q153.14-9.88 153.75-14.14L153.75-14.14L153.75-14.14Q153.94-15.43 153.94-16.80L153.94-16.80L153.94-16.80Q153.94-18.16 153.79-18.73ZM170.73-2.09L170.73-2.09L170.73-2.09Q169.56 0.76 165.79 0.76L165.79 0.76L165.79 0.76Q163.86 0.76 162.64-0.57L162.64-0.57L162.64-0.57Q161.61-1.75 161.61-2.93L161.61-2.93L161.61-2.93Q161.61-6.00 163.02-12.01L163.02-12.01L164.43-19.38L172.14-20.14L169.82-8.13L169.82-8.13Q169.18-5.32 169.18-4.33L169.18-4.33L169.18-4.33Q169.18-2.17 170.73-2.09ZM165.11-24.66L165.11-24.66L165.11-24.66Q165.11-26.14 166.35-26.94L166.35-26.94L166.35-26.94Q167.58-27.74 169.37-27.74L169.37-27.74L169.37-27.74Q171.15-27.74 172.24-26.94L172.24-26.94L172.24-26.94Q173.32-26.14 173.32-24.66L173.32-24.66L173.32-24.66Q173.32-23.18 172.12-22.42L172.12-22.42L172.12-22.42Q170.92-21.66 169.14-21.66L169.14-21.66L169.14-21.66Q167.35-21.66 166.23-22.42L166.23-22.42L166.23-22.42Q165.11-23.18 165.11-24.66ZM189.35-6.42L189.35-6.42L189.35-6.42Q190.30-5.78 190.30-4.35L190.30-4.35L190.30-4.35Q190.30-2.93 189.58-2.01L189.58-2.01L189.58-2.01Q188.86-1.10 187.68-0.49L187.68-0.49L187.68-0.49Q185.25 0.76 182.63 0.76L182.63 0.76L182.63 0.76Q180.01 0.76 178.47 0.19L178.47 0.19L178.47 0.19Q176.93-0.38 175.90-1.44L175.90-1.44L175.90-1.44Q173.89-3.46 173.89-7.14L173.89-7.14L173.89-7.14Q173.89-12.88 177.00-16.38L177.00-16.38L177.00-16.38Q180.35-20.14 186.16-20.14L186.16-20.14L186.16-20.14Q189.77-20.14 191.56-18.62L191.56-18.62L191.56-18.62Q192.89-17.48 192.89-15.62L192.89-15.62L192.89-15.62Q192.89-8.93 181.34-8.93L181.34-8.93L181.34-8.93Q181.18-7.94 181.18-7.11L181.18-7.11L181.18-7.11Q181.18-5.36 181.96-4.69L181.96-4.69L181.96-4.69Q182.74-4.03 184.19-4.03L184.19-4.03L184.19-4.03Q185.63-4.03 187.17-4.69L187.17-4.69L187.17-4.69Q188.71-5.36 189.35-6.42ZM181.60-10.56L181.60-10.56L181.60-10.56Q184.30-10.56 185.86-12.24L185.86-12.24L185.86-12.24Q187.42-13.83 187.42-16.38L187.42-16.38L187.42-16.38Q187.42-17.25 187.09-17.73L187.09-17.73L187.09-17.73Q186.77-18.20 186.12-18.20L186.12-18.20L186.12-18.20Q185.48-18.20 184.93-17.95L184.93-17.95L184.93-17.95Q184.38-17.71 183.81-16.87L183.81-16.87L183.81-16.87Q182.40-14.97 181.60-10.56Z" fill="#eb6c6c"></path></g></g><style>text {
  font-size: 64px;
  font-family: Arial Black;
  dominant-baseline: central;
  text-anchor: middle;
}</style></svg>